<?xml version="1.0" encoding="utf-8"?>
<svg id="Layer_1" style="enable-background:new 0 0 399.1 56.8;" x="0px" y="0px" viewBox="0 0 399.1 56.8" xmlns="http://www.w3.org/2000/svg">
  <style type="text/css">
    .st0{opacity:0.75;}
    .st1{fill:#FFFFFF;}
  </style>
  <g class="st0">
    <circle class="st1" cx="18.4" cy="8.7" r="8.6" style="fill: rgb(2, 120, 185);"/>
    <circle class="st1" cx="8.6" cy="28.2" r="8.6" style="fill: rgb(2, 120, 185);"/>
    <circle class="st1" cx="18.4" cy="47.7" r="8.6" style="fill: rgb(2, 120, 185);"/>
    <circle class="st1" cx="37.9" cy="47.7" r="8.6" style="fill: rgb(2, 120, 185);"/>
    <circle class="st1" cx="37.9" cy="8.7" r="8.6" style="fill: rgb(2, 120, 185);"/>
  </g>
  <g>
    <circle class="st1" cx="58.3" cy="8.7" r="8.6" style="fill: rgb(25, 173, 222);"/>
    <circle class="st1" cx="58.3" cy="28.2" r="8.6" style="fill: rgb(25, 173, 222);"/>
    <circle class="st1" cx="77.8" cy="8.7" r="8.6" style="fill: rgb(25, 173, 222);"/>
    <circle class="st1" cx="97.3" cy="8.7" r="8.6" style="fill: rgb(25, 173, 222);"/>
    <circle class="st1" cx="77.8" cy="28.2" r="8.6" style="fill: rgb(25, 173, 222);"/>
    <circle class="st1" cx="58.3" cy="47.7" r="8.6" style="fill: rgb(25, 173, 222);"/>
  </g>
  <g>
    <path class="st1" d="M154.3,18.5c0.3,0.3,0.5,0.8,0.5,1.2c0,0.9-0.7,1.7-1.7,1.7c-0.4,0-0.9-0.2-1.2-0.6c-1.7-2-4.5-3.3-7.2-3.3&#10;&#9;&#9;c-6.3,0-11.1,4.8-11.1,11.7c0,6.8,4.8,11.7,11.1,11.7c2.7,0,5.4-1.2,7.2-3.3c0.3-0.3,0.8-0.6,1.2-0.6c1,0,1.7,0.9,1.7,1.8&#10;&#9;&#9;c0,0.4-0.2,0.9-0.5,1.2c-2.2,2.3-5.3,4-9.6,4c-8.3,0-14.8-6-14.8-14.9c0-8.8,6.5-14.9,14.8-14.9C149,14.4,152.1,16.2,154.3,18.5z"/>
    <path class="st1" d="M161.7,43.9c-0.9,0-1.6-0.7-1.6-1.6V16.2c0-0.8,0.7-1.6,1.7-1.6c0.8,0,1.6,0.7,1.6,1.6v26.1&#10;&#9;&#9;C163.3,43.2,162.6,43.9,161.7,43.9z"/>
    <path class="st1" d="M187,34.3h-15c0.3,3.9,3,7.2,7.5,7.2c2,0,4-0.6,5.6-1.9c0.2-0.1,0.5-0.2,0.7-0.2c0.6,0,1.3,0.5,1.3,1.3&#10;&#9;&#9;c0,2.2-5.4,3.5-7.9,3.5c-6.2,0-10.6-4.4-10.6-10.9c0-6,4.3-10.9,10.3-10.9c5.2,0,8.6,3.3,9.7,8.1c0.1,0.6,0.3,1.4,0.3,2.2&#10;&#9;&#9;C188.8,33.5,188,34.3,187,34.3z M178.8,25c-4.4,0-6.6,3.7-6.8,6.9h13.7C185.6,28.8,183.5,25,178.8,25z"/>
    <path class="st1" d="M208.7,43.9c-0.9,0-1.6-0.8-1.6-1.7v-0.9c-1.7,1.9-4.1,2.9-6.9,2.9c-3.5,0-7.3-2.4-7.3-6.9&#10;&#9;&#9;c0-4.7,3.7-6.8,7.3-6.8c2.8,0,5.2,0.9,6.9,2.8v-3.8c0-2.8-2.2-4.4-5.3-4.4c-2.1,0-3.8,0.6-5.4,2c-0.3,0.2-0.6,0.3-0.9,0.3&#10;&#9;&#9;c-0.7,0-1.4-0.5-1.4-1.3c0-0.3,0.1-0.7,0.4-0.9c2.2-2,4.8-2.9,7.8-2.9c4.4,0,8.1,2,8.1,7v13C210.3,43.2,209.6,43.9,208.7,43.9z&#10;&#9;&#9; M207.1,35.3c-1.2-1.7-3.4-2.6-5.7-2.6c-3,0-5.1,1.9-5.1,4.6c0,2.6,2.1,4.5,5.1,4.5c2.3,0,4.5-0.9,5.7-2.6V35.3z"/>
    <path class="st1" d="M225.5,25.8c-2.1,0.1-4.1,1.1-5.5,3.1v13.4c0,0.9-0.7,1.6-1.6,1.6l0,0c-0.9,0-1.6-0.7-1.6-1.6V24.1&#10;&#9;&#9;c0-0.8,0.7-1.6,1.7-1.6c0.8,0,1.6,0.7,1.6,1.6v2.1c1.2-1.6,3.3-3.7,5.7-3.7c0.8,0,1.5,0.6,1.5,1.5C227.2,25,226.5,25.7,225.5,25.8z&#10;&#9;&#9;"/>
    <path class="st1" d="M260.8,18.1h-14v9.3h13.7c0.9,0,1.6,0.7,1.6,1.6c0,0.9-0.7,1.6-1.6,1.6h-13.7v11.6c0,1-0.8,1.8-1.8,1.8&#10;&#9;&#9;s-1.8-0.8-1.8-1.8V17.5c0-1.4,1.2-2.6,2.6-2.6h15c0.9,0,1.6,0.7,1.6,1.6C262.3,17.4,261.6,18.1,260.8,18.1z"/>
    <path class="st1" d="M282.4,43.9c-0.9,0-1.6-0.7-1.6-1.6v-1.6c-1.6,1.8-4.3,3.4-7.4,3.4c-4.4,0-6.6-2.1-6.6-6.6V24.1&#10;&#9;&#9;c0-0.8,0.7-1.6,1.7-1.6c0.8,0,1.6,0.7,1.6,1.6v12.4c0,3.7,1.9,4.7,4.7,4.7c2.5,0,5-1.5,6.2-3.1v-14c0-0.8,0.7-1.6,1.7-1.6&#10;&#9;&#9;c0.8,0,1.6,0.7,1.6,1.6v18.2C284.1,43.2,283.4,43.9,282.4,43.9z"/>
    <path class="st1" d="M305.2,43.9c-0.9,0-1.6-0.7-1.6-1.6V30c0-3.7-1.9-4.8-4.7-4.8c-2.5,0-5,1.6-6.2,3.2v13.9&#10;&#9;&#9;c0,0.9-0.7,1.6-1.6,1.6s-1.6-0.7-1.6-1.6V24.1c0-0.8,0.7-1.6,1.7-1.6c0.8,0,1.6,0.7,1.6,1.6v1.7c1.5-1.7,4.3-3.5,7.4-3.5&#10;&#9;&#9;c4.4,0,6.6,2.2,6.6,6.7v13.3C306.8,43.2,306.1,43.9,305.2,43.9z"/>
    <path class="st1" d="M328.3,41.5c-1.6,1.6-3.7,2.7-6.8,2.7c-6.2,0-10.4-4.7-10.4-10.9s4.2-10.9,10.4-10.9c3.1,0,5.3,1.1,6.8,2.7&#10;&#9;&#9;c0.2,0.3,0.3,0.6,0.3,0.9c0,0.7-0.6,1.5-1.5,1.5c-0.4,0-0.8-0.2-1.1-0.5c-1.2-1.2-2.7-1.7-4.4-1.7c-4.4,0-7.2,3.4-7.2,8&#10;&#9;&#9;s2.8,8.1,7.2,8.1c1.7,0,3.2-0.6,4.4-1.8c0.3-0.3,0.7-0.4,1.1-0.4c0.8,0,1.5,0.6,1.5,1.4C328.7,40.9,328.6,41.2,328.3,41.5z"/>
    <path class="st1" d="M339.9,44.2c-3.1,0-4.6-1.8-4.6-4.9V25.7H333c-0.8,0-1.4-0.6-1.4-1.5c0-0.8,0.6-1.4,1.4-1.4h2.3v-4.3&#10;&#9;&#9;c0-0.8,0.7-1.6,1.7-1.6c0.8,0,1.6,0.7,1.6,1.6v4.4h3.1c0.8,0,1.4,0.6,1.4,1.5c0,0.8-0.6,1.4-1.4,1.4h-3.1v12.9&#10;&#9;&#9;c0,1.6,0.7,2.7,2.1,2.7c0.6,0,1.2-0.3,1.7-0.3c0.7,0,1.4,0.6,1.4,1.3C343.7,43.7,341.7,44.2,339.9,44.2z"/>
    <path class="st1" d="M352.1,17.7c0,1.2-1,2.2-2.2,2.2s-2.2-0.9-2.2-2.2c0-1.2,1-2.2,2.2-2.2S352.1,16.5,352.1,17.7z M349.9,43.9&#10;&#9;&#9;c-0.9,0-1.6-0.7-1.6-1.6V24.1c0-0.8,0.7-1.6,1.7-1.6c0.8,0,1.6,0.7,1.6,1.6v18.2C351.5,43.2,350.8,43.9,349.9,43.9z"/>
    <path class="st1" d="M366.1,44.2c-6.3,0-10.3-4.9-10.3-10.9s4-10.9,10.3-10.9s10.3,4.9,10.3,10.9S372.4,44.2,366.1,44.2z&#10;&#9;&#9; M366.1,25.2c-4.4,0-6.9,3.8-6.9,8c0,4.3,2.5,8.1,6.9,8.1s6.9-3.8,6.9-8.1C373,29,370.5,25.2,366.1,25.2z"/>
    <path class="st1" d="M396.3,43.9c-0.9,0-1.6-0.7-1.6-1.6V30c0-3.7-1.9-4.8-4.7-4.8c-2.5,0-5,1.6-6.2,3.2v13.9&#10;&#9;&#9;c0,0.9-0.7,1.6-1.6,1.6s-1.6-0.7-1.6-1.6V24.1c0-0.8,0.7-1.6,1.7-1.6c0.8,0,1.6,0.7,1.6,1.6v1.7c1.5-1.7,4.3-3.5,7.4-3.5&#10;&#9;&#9;c4.4,0,6.6,2.2,6.6,6.7v13.3C397.9,43.2,397.2,43.9,396.3,43.9z"/>
  </g>
</svg>
